HIERARCHY
ROOT RootJoint
{
    OFFSET   0.000000   0.000000   0.000000
    CHANNELS 6 Xposition Yposition Zposition Xrotation Yrotation Zrotation
    JOINT lHip
    {
        OFFSET   0.100000  -0.051395   0.000000
        CHANNELS 3 Xrotation Yrotation Zrotation
        JOINT lKnee
        {
            OFFSET   0.000000  -0.410000   0.000000
            CHANNELS 3 Xrotation Yrotation Zrotation
            JOINT lAnkle
            {
                OFFSET   0.000000  -0.390000   0.000000
                CHANNELS 3 Xrotation Yrotation Zrotation
            }
        }
    }
    JOINT pelvis_lowerback
    {
        OFFSET   0.000000   0.093605   0.000000
        CHANNELS 3 Xrotation Yrotation Zrotation
        JOINT lowerback_torso
        {
            OFFSET   0.000000   0.100000   0.000000
            CHANNELS 3 Xrotation Yrotation Zrotation
            JOINT lTorso_Clavicle
            {
                OFFSET   0.001000   0.157500   0.000000
                CHANNELS 3 Xrotation Yrotation Zrotation
                JOINT lShoulder
                {
                    OFFSET   0.117647   0.000000   0.000000
                    CHANNELS 3 Xrotation Yrotation Zrotation
                    JOINT lElbow
                    {
                        OFFSET   0.245000   0.000000   0.000000
                        CHANNELS 3 Xrotation Yrotation Zrotation
                    }
                }
            }
            JOINT rTorso_Clavicle
            {
                OFFSET  -0.001000   0.157500   0.000000
                CHANNELS 3 Xrotation Yrotation Zrotation
                JOINT rShoulder
                {
                    OFFSET  -0.117647   0.000000   0.000000
                    CHANNELS 3 Xrotation Yrotation Zrotation
                    JOINT rElbow
                    {
                        OFFSET  -0.245000   0.000000   0.000000
                        CHANNELS 3 Xrotation Yrotation Zrotation
                    }
                }
            }
            JOINT torso_head
            {
                OFFSET   0.000000   0.282350   0.000000
                CHANNELS 3 Xrotation Yrotation Zrotation
                End Site
                {
                    OFFSET   0.000000   0.192650   0.000000
                }
            }
        }
    }
    JOINT rHip
    {
        OFFSET  -0.100000  -0.051395   0.000000
        CHANNELS 3 Xrotation Yrotation Zrotation
        JOINT rKnee
        {
            OFFSET   0.000000  -0.410000   0.000000
            CHANNELS 3 Xrotation Yrotation Zrotation
            JOINT rAnkle
            {
                OFFSET   0.000000  -0.390000   0.000000
                CHANNELS 3 Xrotation Yrotation Zrotation
            }
        }
    }
}
MOTION
Frames: 14
Frame Time:   0.008333
  0.000000   0.900847   0.000000  -1.419000   1.345000   1.406000  -6.080000  -0.522000  -6.738000  12.557300   2.608350  -3.990350  -5.366000   0.338000   9.157000   3.765080   0.353236  -1.115700   3.268060   1.263210   0.409372   3.780780  -2.390130 -21.033100   6.371990 -40.586200 -43.740700   0.230451 -19.147200   2.518410   0.063387  -7.386100  19.742600  17.384200  27.997200  51.649400   0.239465  10.897500   0.201194   2.260840  -0.319746  -0.279636 -29.970000  -9.377000  -2.926000  65.445400  -3.252380  -2.202310   6.923590  -2.126220  -7.974430
  0.000714   0.900731   0.008779  -1.375691   1.681588   1.329409  -5.360243  -0.653663  -6.678218  12.232802   2.472415  -3.912474  -5.782465   0.216752   9.066564   3.799046   0.335847  -1.216686   3.259959   0.958238   0.661225   3.771351  -2.452924 -21.027110   5.594247 -40.756280 -43.706790   0.227357 -19.416743   2.640845   0.070896  -7.503489  19.739453  17.665718  27.764170  51.790645   0.243413  10.892042   0.277462   2.253750  -0.315741  -0.277196 -30.543498  -9.373245  -2.807535  63.792672  -3.245301  -1.968920   5.823535  -2.028327  -7.863727
  0.001428   0.900615   0.017558  -1.331923   2.018118   1.252549  -4.640328  -0.784564  -6.616784  11.908521   2.336042  -3.835378  -6.199118   0.096165   8.975249   3.832982   0.318399  -1.317661   3.253198   0.653234   0.913016   3.761928  -2.515718 -21.021130   4.814638 -40.926694 -43.675851   0.224869 -19.686291   2.763469   0.078401  -7.620879  19.736321  17.947285  27.531756  51.932880   0.247368  10.886590   0.353729   2.246660  -0.311737  -0.274756 -31.116998  -9.370659  -2.689039  62.139935  -3.244945  -1.735423   4.723357  -1.932575  -7.751170
  0.002142   0.900499   0.026337  -1.287694   2.354589   1.175414  -3.920250  -0.914684  -6.553709  11.584455   2.199236  -3.759063  -6.615962  -0.023754   8.883059   3.866886   0.300891  -1.418626   3.247779   0.348202   1.164760   3.752511  -2.578514 -21.015160   4.033129 -41.097411 -43.647912   0.222991 -19.955844   2.886288   0.085901  -7.738269  19.733203  18.228910  27.299964  52.076100   0.251331  10.881142   0.429995   2.239570  -0.307733  -0.272315 -31.690499  -9.369244  -2.570524  60.487206  -3.251313  -1.502012   3.623053  -1.839001  -7.636800
  0.002856   0.900383   0.035116  -1.243000   2.691000   1.098000  -3.200000  -1.044000  -6.489000  11.260600   2.062000  -3.683530  -7.033000  -0.143000   8.790000   3.900760   0.283323  -1.519580   3.243700   0.043150   1.416470   3.743100  -2.641310 -21.009200   3.249690 -41.268400 -43.623000   0.221725 -20.225400   3.009310   0.093397  -7.855660  19.730100  18.510600  27.068800  52.220300   0.255301  10.875700   0.506260   2.232480  -0.303729  -0.269874 -32.264000  -9.369000  -2.452000  58.834500  -3.264400  -1.268880   2.522620  -1.747640  -7.520660
  0.002686   0.899808   0.044255  -1.189702   2.983375   1.009700  -2.570863  -1.572978  -6.436495  11.046776   2.165128  -3.636467  -7.533844  -0.086568   8.727002   3.882168   0.234739  -1.612769   3.302198  -0.326037   1.635113   3.673498  -2.631728 -20.924341   2.504637 -41.291757 -43.882148   0.216518 -20.394886   3.126331   0.163014  -7.826561  19.792885  18.786836  26.959972  52.286066   0.258906  10.941300   0.511399   2.205250  -0.288407  -0.256624 -32.520344  -9.301889  -2.322415  56.541235  -3.340191  -0.914616   2.287420  -1.764535  -7.430367
  0.002517   0.899233   0.053395  -1.135938   3.275667   0.921104  -1.941056  -2.101346  -6.378166  10.832852   2.268081  -3.589016  -8.034625  -0.029588   8.664499   3.863498   0.186186  -1.705974   3.362107  -0.694999   1.854145   3.603882  -2.622249 -20.839472   1.759199 -41.312579 -44.141767   0.211676 -20.564382   3.243464   0.232593  -7.797386  19.855630  19.062947  26.851428  52.352357   0.262505  11.006899   0.516534   2.178017  -0.273090  -0.243366 -32.776792  -9.235351  -2.192552  54.248286  -3.430072  -0.563644   2.052244  -1.781800  -7.340143
  0.002348   0.898659   0.062534  -1.081705   3.567876   0.832205  -1.310470  -2.629042  -6.314004  10.618827   2.370855  -3.541177  -8.535343   0.027936   8.602497   3.844748   0.137663  -1.799194   3.423433  -1.063728   2.073585   3.534253  -2.612873 -20.754591   1.013419 -41.330862 -44.401802   0.207198 -20.733887   3.360713   0.302136  -7.768136  19.918335  19.338934  26.743170  52.419169   0.266099  11.072500   0.521667   2.150780  -0.257781  -0.230101 -33.033344  -9.169388  -2.062413  51.955696  -3.533898  -0.216519   1.817094  -1.799435  -7.249991
  0.002179   0.898084   0.071674  -1.027000   3.860000   0.743000  -0.679000  -3.156000  -6.244000  10.404700   2.473450  -3.492950  -9.036000   0.086000   8.541000   3.825920   0.089170  -1.892430   3.486180  -1.432220   2.293450   3.464610  -2.603600 -20.669700   0.267342 -41.346600 -44.662200   0.203087 -20.903400   3.478080   0.371641  -7.738810  19.981000  19.614800  26.635200  52.486500   0.269688  11.138100   0.526796   2.123540  -0.242477  -0.216829 -33.290000  -9.104000  -1.932000  49.663500  -3.651500   0.126208   1.581970  -1.817440  -7.159910
  0.001947   0.896804   0.080945  -0.899212   4.048112   0.709894  -0.193623  -3.472775  -6.220180  10.434687   2.488186  -3.459641  -9.682871   0.037832   8.635086   3.722088   0.040519  -2.036861   3.540982  -1.716238   2.488331   3.401163  -2.560450 -20.604893  -0.440989 -41.277448 -44.987226   0.199264 -21.083267   3.573378   0.434980  -7.654057  20.023279  19.854162  26.559921  52.576114   0.273374  11.196424   0.532114   2.094887  -0.221260  -0.212826 -33.314959  -9.088930  -1.824003  46.765906  -3.633480   0.359107   1.877637  -1.817279  -7.007864
  0.001714   0.895524   0.090217  -0.771284   4.236150   0.676359   0.292056  -3.789337  -6.193664  10.464666   2.502940  -3.426340 -10.329662  -0.011395   8.728623   3.618134  -0.007870  -2.181380   3.596760  -2.000068   2.683515   3.337668  -2.517371 -20.540041  -1.148022 -41.205287 -45.310740   0.195757 -21.263140   3.668779   0.498244  -7.569257  20.065455  20.093499  26.484977  52.666019   0.277056  11.254749   0.537429   2.066233  -0.200045  -0.208813 -33.339945  -9.073907  -1.716004  43.868301  -3.627233   0.592618   2.173303  -1.816333  -6.855821
  0.001482   0.894244   0.099488  -0.643215   4.424113   0.642394   0.778067  -4.105663  -6.164448  10.494637   2.517711  -3.393046 -10.976372  -0.061674   8.821598   3.514057  -0.055997  -2.325986   3.653515  -2.283707   2.879011   3.274128  -2.474365 -20.475143  -1.853708 -41.130131 -45.632684   0.192568 -21.443017   3.764286   0.561433  -7.484412  20.107529  20.332811  26.410369  52.756215   0.280732  11.313074   0.542741   2.037577  -0.178832  -0.204789 -33.364959  -9.058930  -1.608003  40.970695  -3.632774   0.826147   2.468964  -1.814604  -6.703785
  0.001250   0.892964   0.108760  -0.515000   4.612000   0.608000   1.264440  -4.421730  -6.132530  10.524600   2.532500  -3.359760 -11.623000  -0.113000   8.914000   3.409860  -0.103861  -2.470680   3.711250  -2.567150   3.074830   3.210540  -2.431430 -20.410200  -2.558000 -41.052000 -45.953000   0.189697 -21.622900   3.859900   0.624546  -7.399520  20.149500  20.572100  26.336100  52.846700   0.284404  11.371400   0.548051   2.008920  -0.157621  -0.200755 -33.390000  -9.044000  -1.500000  38.073100  -3.650090   1.059100   2.764620  -1.812090  -6.551760
  0.000968   0.891168   0.118312  -0.335491   4.727588   0.650573   1.751265  -4.511200  -6.131814  10.500046   2.488989  -3.357659 -12.255329  -0.219012   9.035528   3.241547  -0.155677  -2.642951   3.739294  -2.771672   3.161559   3.148329  -2.388129 -20.315941  -3.121894 -40.896318 -46.299808   0.186772 -21.828794   3.954132   0.690161  -7.321936  20.197297  20.814821  26.392220  52.922495   0.290151  11.392142   0.601885   1.976962  -0.140472  -0.186199 -33.069039  -9.017979  -1.261238  34.497356  -3.542400   0.953241   3.117352  -1.787686  -5.928442
